<?xml version="1.0" encoding="utf-8"?>
<!-- Generator: Adobe Illustrator 16.0.0, SVG Export Plug-In . SVG Version: 6.00 Build 0)  -->
<!DOCTYPE svg PUBLIC "-//W3C//DTD SVG 1.1//EN" "http://www.w3.org/Graphics/SVG/1.1/DTD/svg11.dtd">
<svg version="1.1"
	 id="svg2" inkscape:version="0.48.0 r9654" sodipodi:docname="app_store_badge2.svg" xmlns:sodipodi="http://sodipodi.sourceforge.net/DTD/sodipodi-0.dtd" xmlns:dc="http://purl.org/dc/elements/1.1/" xmlns:inkscape="http://www.inkscape.org/namespaces/inkscape" xmlns:svg="http://www.w3.org/2000/svg" xmlns:cc="http://creativecommons.org/ns#" xmlns:rdf="http://www.w3.org/1999/02/22-rdf-syntax-ns#"
	 xmlns="http://www.w3.org/2000/svg" xmlns:xlink="http://www.w3.org/1999/xlink" x="0px" y="0px" width="6144px" height="2016px"
	 viewBox="0 0 6144 2016" enable-background="new 0 0 6144 2016" xml:space="preserve">
<path id="path6" d="M6140.62,1737.202c0,149.832-121.452,271.344-271.261,271.344H274.18c-149.82,0.012-271.32-121.5-271.32-271.344
	V272.134c0-149.82,121.5-271.32,271.32-271.32h5595.167c149.809,0,271.261,121.5,271.261,271.32v1465.068H6140.62z"/>
<g id="g3447" transform="matrix(4.5575069,0,0,4.5575069,-19.224881,-4.506577)">
	<g id="g3449">
		<path id="path3451" inkscape:connector-curvature="0" fill="#FFFFFF" d="M315.762,226.71
			c-0.348-38.676,31.668-57.492,33.132-58.368c-18.132-26.436-46.236-30.048-56.112-30.336c-23.604-2.484-46.5,14.124-58.524,14.124
			c-12.264,0-30.78-13.884-50.736-13.476c-25.68,0.396-49.704,15.264-62.88,38.352c-27.192,47.076-6.912,116.256,19.14,154.308
			c13.032,18.636,28.26,39.444,48.192,38.712c19.5-0.804,26.784-12.432,50.316-12.432c23.316,0,30.156,12.432,50.484,11.964
			c20.928-0.336,34.104-18.72,46.68-37.524c15.06-21.36,21.108-42.396,21.348-43.476C356.31,288.39,316.158,273.065,315.762,226.71z
			"/>
		<path id="path3453" inkscape:connector-curvature="0" fill="#FFFFFF" d="M277.362,112.974
			c10.488-13.116,17.664-30.96,15.672-49.068c-15.18,0.672-34.164,10.5-45.096,23.328c-9.672,11.304-18.312,29.832-16.08,47.256
			C248.91,135.762,266.418,125.886,277.362,112.974z"/>
	</g>
</g>
<g id="g3455" transform="matrix(3.8274018,0,0,3.8274018,-9.6973212,-7.8135619)">
	<path id="path3457" inkscape:connector-curvature="0" fill="#FFFFFF" d="M616.617,355.804h-27.252l-14.928-46.908h-51.888
		l-14.22,46.908h-26.532l51.408-159.696h31.752L616.617,355.804z M569.937,289.216l-13.5-41.7
		c-1.428-4.26-4.104-14.292-8.052-30.084h-0.48c-1.572,6.792-4.104,16.824-7.584,30.084l-13.26,41.7H569.937z"/>
	<path id="path3459" inkscape:connector-curvature="0" fill="#FFFFFF" d="M748.821,296.812c0,19.584-5.292,35.064-15.876,46.428
		c-9.48,10.116-21.252,15.168-35.304,15.168c-15.168,0-26.064-5.448-32.7-16.344h-0.48v60.66h-25.584V278.56
		c0-12.312-0.324-24.948-0.948-37.908h22.5l1.428,18.252h0.48c8.532-13.752,21.48-20.616,38.856-20.616
		c13.584,0,24.924,5.364,33.996,16.104C744.285,265.144,748.821,279.28,748.821,296.812L748.821,296.812z M722.757,297.748
		c0-11.208-2.52-20.448-7.584-27.72c-5.532-7.584-12.96-11.376-22.272-11.376c-6.312,0-12.048,2.112-17.172,6.276
		c-5.136,4.2-8.496,9.684-10.068,16.476c-0.792,3.168-1.188,5.76-1.188,7.8v19.2c0,8.376,2.568,15.444,7.704,21.216
		c5.136,5.772,11.808,8.652,20.016,8.652c9.636,0,17.136-3.72,22.5-11.136C720.069,319.708,722.757,309.916,722.757,297.748z"/>
	<path id="path3461" inkscape:connector-curvature="0" fill="#FFFFFF" d="M881.265,296.812c0,19.584-5.292,35.064-15.888,46.428
		c-9.468,10.116-21.24,15.168-35.292,15.168c-15.168,0-26.064-5.448-32.688-16.344h-0.48v60.66h-25.584V278.56
		c0-12.312-0.324-24.948-0.948-37.908h22.5l1.428,18.252h0.48c8.52-13.752,21.468-20.616,38.856-20.616
		c13.572,0,24.912,5.364,34.008,16.104C876.717,265.144,881.265,279.28,881.265,296.812L881.265,296.812z M855.201,297.748
		c0-11.208-2.532-20.448-7.596-27.72c-5.532-7.584-12.936-11.376-22.26-11.376c-6.324,0-12.048,2.112-17.184,6.276
		c-5.136,4.2-8.484,9.684-10.056,16.476c-0.78,3.168-1.188,5.76-1.188,7.8v19.2c0,8.376,2.568,15.444,7.68,21.216
		c5.136,5.76,11.808,8.652,20.04,8.652c9.636,0,17.136-3.72,22.5-11.136C852.513,319.708,855.201,309.916,855.201,297.748
		L855.201,297.748z"/>
	<path id="path3463" inkscape:connector-curvature="0" fill="#FFFFFF" d="M1029.345,311.02c0,13.584-4.716,24.636-14.184,33.168
		c-10.404,9.324-24.888,13.98-43.5,13.98c-17.184,0-30.96-3.312-41.388-9.948l5.928-21.324c11.232,6.792,23.556,10.2,36.984,10.2
		c9.636,0,17.136-2.184,22.524-6.528c5.364-4.344,8.04-10.176,8.04-17.448c0-6.48-2.208-11.94-6.636-16.368
		c-4.404-4.428-11.76-8.544-22.032-12.348c-27.96-10.428-41.928-25.704-41.928-45.792c0-13.128,4.896-23.892,14.7-32.268
		c9.768-8.388,22.8-12.576,39.096-12.576c14.532,0,26.604,2.532,36.24,7.584l-6.396,20.856c-9-4.896-19.176-7.344-30.564-7.344
		c-9,0-16.032,2.22-21.072,6.636c-4.26,3.948-6.396,8.76-6.396,14.46c0,6.312,2.436,11.532,7.332,15.636
		c4.26,3.792,12,7.896,23.232,12.324c13.74,5.532,23.832,12,30.324,19.416C1026.117,290.728,1029.345,299.98,1029.345,311.02
		L1029.345,311.02z"/>
	<path id="path3465" inkscape:connector-curvature="0" fill="#FFFFFF" d="M1113.933,259.852h-28.2v55.908
		c0,14.22,4.968,21.324,14.928,21.324c4.572,0,8.364-0.396,11.364-1.188l0.708,19.428c-5.04,1.884-11.676,2.832-19.896,2.832
		c-10.104,0-18-3.084-23.7-9.24c-5.676-6.168-8.532-16.512-8.532-31.044v-58.044h-16.8v-19.2h16.8v-21.084l25.128-7.584v28.668h28.2
		V259.852L1113.933,259.852z"/>
	<path id="path3467" inkscape:connector-curvature="0" fill="#FFFFFF" d="M1241.169,297.28c0,17.7-5.064,32.232-15.168,43.596
		c-10.596,11.7-24.66,17.532-42.192,17.532c-16.896,0-30.348-5.604-40.38-16.812c-10.032-11.208-15.048-25.356-15.048-42.408
		c0-17.844,5.16-32.46,15.516-43.824c10.332-11.376,24.276-17.064,41.808-17.064c16.896,0,30.492,5.604,40.752,16.824
		C1236.273,266.008,1241.169,280.06,1241.169,297.28L1241.169,297.28z M1214.625,298.108c0-10.62-2.268-19.728-6.864-27.324
		c-5.364-9.192-13.032-13.776-22.968-13.776c-10.284,0-18.096,4.596-23.46,13.776c-4.596,7.608-6.864,16.86-6.864,27.804
		c0,10.62,2.268,19.728,6.864,27.312c5.532,9.192,13.26,13.776,23.232,13.776c9.768,0,17.436-4.68,22.968-14.016
		C1212.249,317.92,1214.625,308.716,1214.625,298.108L1214.625,298.108z"/>
	<path id="path3469" inkscape:connector-curvature="0" fill="#FFFFFF" d="M1324.329,263.152c-2.532-0.468-5.232-0.708-8.064-0.708
		c-9,0-15.96,3.396-20.856,10.2c-4.26,6-6.396,13.584-6.396,22.74v60.42h-25.572l0.24-78.888c0-13.272-0.324-25.356-0.96-36.252
		h22.284l0.936,22.032h0.708c2.7-7.572,6.96-13.668,12.792-18.24c5.7-4.116,11.856-6.168,18.492-6.168
		c2.364,0,4.5,0.168,6.396,0.468L1324.329,263.152L1324.329,263.152z"/>
	<path id="path3471" inkscape:connector-curvature="0" fill="#FFFFFF" d="M1438.749,292.78c0,4.584-0.3,8.448-0.936,11.604h-76.752
		c0.3,11.376,4.008,20.076,11.136,26.076c6.468,5.364,14.832,8.052,25.104,8.052c11.364,0,21.732-1.812,31.056-5.448l4.008,17.76
		c-10.896,4.752-23.76,7.116-38.604,7.116c-17.856,0-31.872-5.256-42.072-15.756c-10.176-10.5-15.276-24.6-15.276-42.288
		c0-17.364,4.74-31.824,14.232-43.356c9.936-12.312,23.364-18.468,40.26-18.468c16.596,0,29.16,6.156,37.692,18.468
		C1435.353,266.32,1438.749,278.416,1438.749,292.78L1438.749,292.78z M1414.353,286.144c0.168-7.584-1.5-14.136-4.968-19.668
		c-4.428-7.116-11.232-10.668-20.388-10.668c-8.364,0-15.168,3.468-20.364,10.428c-4.26,5.532-6.792,12.168-7.572,19.896h53.292
		L1414.353,286.144z"/>
</g>
<g id="g3473" transform="matrix(2.1467581,0,0,2.1467581,61.549532,19.205041)">
	<g id="g3475">
		<path id="path3477" inkscape:connector-curvature="0" fill="#FFFFFF" d="M905.312,218.894c0,14.124-4.236,24.756-12.696,31.896
			c-7.836,6.588-18.972,9.888-33.396,9.888c-7.152,0-13.272-0.312-18.396-0.936V182.57c6.684-1.08,13.884-1.632,21.66-1.632
			c13.74,0,24.096,2.988,31.08,8.964C901.388,196.658,905.312,206.318,905.312,218.894z M892.052,219.242
			c0-9.156-2.424-16.176-7.272-21.072c-4.848-4.884-11.928-7.332-21.252-7.332c-3.96,0-7.332,0.264-10.128,0.816v58.668
			c1.548,0.24,4.38,0.348,8.496,0.348c9.624,0,17.052-2.676,22.284-8.028C889.412,237.29,892.052,229.49,892.052,219.242
			L892.052,219.242z"/>
		<path id="path3479" inkscape:connector-curvature="0" fill="#FFFFFF" d="M975.62,231.23c0,8.7-2.484,15.828-7.452,21.42
			c-5.208,5.748-12.108,8.616-20.724,8.616c-8.304,0-14.916-2.748-19.848-8.268c-4.92-5.508-7.38-12.456-7.38-20.832
			c0-8.76,2.532-15.948,7.62-21.528c5.088-5.58,11.928-8.376,20.544-8.376c8.304,0,14.976,2.748,20.028,8.256
			C973.209,215.87,975.62,222.782,975.62,231.23z M962.576,231.638c0-5.22-1.128-9.696-3.372-13.428
			c-2.64-4.512-6.396-6.768-11.28-6.768c-5.052,0-8.892,2.256-11.532,6.768c-2.256,3.732-3.372,8.28-3.372,13.656
			c0,5.22,1.128,9.696,3.372,13.428c2.724,4.512,6.516,6.768,11.412,6.768c4.8,0,8.569-2.292,11.28-6.888
			C961.413,241.37,962.577,236.858,962.576,231.638L962.576,231.638z"/>
		<path id="path3481" inkscape:connector-curvature="0" fill="#FFFFFF" d="M1069.892,203.414l-17.7,56.568h-11.52l-7.332-24.564
			c-1.86-6.132-3.372-12.228-4.548-18.276h-0.228c-1.092,6.216-2.604,12.3-4.548,18.276l-7.788,24.564h-11.652l-16.644-56.568
			h12.924l6.396,26.892c1.548,6.36,2.82,12.42,3.84,18.156h0.228c0.936-4.728,2.484-10.752,4.668-18.036l8.028-27h10.248
			l7.692,26.424c1.86,6.444,3.372,12.648,4.536,18.624h0.348c0.852-5.82,2.136-12.024,3.84-18.624l6.864-26.424h12.348V203.414z"/>
		<path id="path3483" inkscape:connector-curvature="0" fill="#FFFFFF" d="M1135.088,259.982h-12.576v-32.4
			c0-9.984-3.792-14.976-11.4-14.976c-3.732,0-6.744,1.368-9.084,4.116c-2.316,2.748-3.492,5.988-3.492,9.696v33.552h-12.576
			v-40.392c0-4.968-0.156-10.356-0.456-16.188h11.052l0.588,8.844h0.348c1.464-2.748,3.648-5.016,6.516-6.828
			c3.408-2.112,7.224-3.18,11.4-3.18c5.28,0,9.672,1.704,13.164,5.124c4.344,4.188,6.516,10.44,6.516,18.744V259.982
			L1135.088,259.982z"/>
		<path id="path3485" inkscape:connector-curvature="0" fill="#FFFFFF" d="M1169.769,259.982h-12.564v-82.524h12.564V259.982
			L1169.769,259.982z"/>
		<path id="path3487" inkscape:connector-curvature="0" fill="#FFFFFF" d="M1243.808,231.23c0,8.7-2.484,15.828-7.452,21.42
			c-5.208,5.748-12.12,8.616-20.724,8.616c-8.316,0-14.928-2.748-19.848-8.268c-4.92-5.508-7.38-12.456-7.38-20.832
			c0-8.76,2.532-15.948,7.62-21.528c5.088-5.58,11.928-8.376,20.532-8.376c8.316,0,14.976,2.748,20.04,8.256
			C1241.396,215.87,1243.808,222.782,1243.808,231.23z M1230.753,231.638c0-5.22-1.128-9.696-3.372-13.428
			c-2.628-4.512-6.396-6.768-11.268-6.768c-5.064,0-8.904,2.256-11.532,6.768c-2.256,3.732-3.372,8.28-3.372,13.656
			c0,5.22,1.128,9.696,3.372,13.428c2.724,4.512,6.516,6.768,11.412,6.768c4.8,0,8.556-2.292,11.268-6.888
			C1229.6,241.37,1230.752,236.858,1230.753,231.638L1230.753,231.638z"/>
		<path id="path3489" inkscape:connector-curvature="0" fill="#FFFFFF" d="M1304.672,259.982h-11.292l-0.936-6.516h-0.348
			c-3.864,5.196-9.372,7.8-16.524,7.8c-5.34,0-9.66-1.716-12.912-5.124c-2.952-3.096-4.428-6.948-4.428-11.52
			c0-6.912,2.88-12.18,8.676-15.828c5.784-3.648,13.92-5.436,24.396-5.352v-1.056c0-7.452-3.912-11.172-11.748-11.172
			c-5.58,0-10.5,1.404-14.748,4.188l-2.556-8.256c5.256-3.252,11.748-4.884,19.404-4.884c14.784,0,22.2,7.8,22.2,23.4v20.832
			C1303.856,252.146,1304.132,256.646,1304.672,259.982L1304.672,259.982z M1291.617,240.542v-8.724
			c-13.872-0.24-20.808,3.564-20.808,11.4c0,2.952,0.792,5.16,2.412,6.636c1.62,1.476,3.684,2.208,6.144,2.208
			c2.76,0,5.34-0.876,7.692-2.616c2.364-1.752,3.816-3.972,4.356-6.696C1291.544,242.138,1291.617,241.394,1291.617,240.542
			L1291.617,240.542z"/>
		<path id="path3491" inkscape:connector-curvature="0" fill="#FFFFFF" d="M1376.133,259.982h-11.161l-0.588-9.084h-0.348
			c-3.564,6.912-9.636,10.368-18.168,10.368c-6.816,0-12.492-2.676-16.991-8.028c-4.5-5.352-6.744-12.3-6.744-20.832
			c0-9.156,2.437-16.572,7.332-22.236c4.74-5.28,10.548-7.92,17.46-7.92c7.596,0,12.912,2.556,15.936,7.68h0.24v-32.472h12.588
			v67.284C1375.689,250.25,1375.832,255.326,1376.133,259.982L1376.133,259.982z M1363.101,236.126v-9.432
			c0-1.632-0.12-2.952-0.348-3.96c-0.708-3.024-2.232-5.568-4.548-7.62c-2.34-2.052-5.16-3.084-8.412-3.084
			c-4.692,0-8.364,1.86-11.064,5.592c-2.676,3.732-4.032,8.496-4.032,14.316c0,5.592,1.284,10.128,3.864,13.62
			c2.724,3.72,6.396,5.58,10.992,5.58c4.128,0,7.428-1.548,9.936-4.656C1361.912,243.614,1363.101,240.158,1363.101,236.126
			L1363.101,236.126z"/>
		<path id="path3493" inkscape:connector-curvature="0" fill="#FFFFFF" d="M1483.688,231.23c0,8.7-2.484,15.828-7.452,21.42
			c-5.208,5.748-12.096,8.616-20.724,8.616c-8.292,0-14.904-2.748-19.848-8.268c-4.92-5.508-7.38-12.456-7.38-20.832
			c0-8.76,2.532-15.948,7.62-21.528c5.088-5.58,11.928-8.376,20.556-8.376c8.292,0,14.976,2.748,20.016,8.256
			C1481.277,215.87,1483.688,222.782,1483.688,231.23z M1470.656,231.638c0-5.22-1.128-9.696-3.372-13.428
			c-2.652-4.512-6.396-6.768-11.292-6.768c-5.04,0-8.88,2.256-11.532,6.768c-2.256,3.732-3.372,8.28-3.372,13.656
			c0,5.22,1.128,9.696,3.372,13.428c2.724,4.512,6.516,6.768,11.412,6.768c4.8,0,8.58-2.292,11.292-6.888
			C1469.48,241.37,1470.656,236.858,1470.656,231.638L1470.656,231.638z"/>
		<path id="path3495" inkscape:connector-curvature="0" fill="#FFFFFF" d="M1551.308,259.982h-12.564v-32.4
			c0-9.984-3.792-14.976-11.412-14.976c-3.732,0-6.744,1.368-9.072,4.116c-2.328,2.748-3.492,5.988-3.492,9.696v33.552h-12.588
			v-40.392c0-4.968-0.144-10.356-0.444-16.188h11.04l0.588,8.844h0.348c1.476-2.748,3.66-5.016,6.516-6.828
			c3.42-2.112,7.224-3.18,11.412-3.18c5.268,0,9.66,1.704,13.152,5.124c4.356,4.188,6.516,10.44,6.516,18.744V259.982
			L1551.308,259.982z"/>
		<path id="path3497" inkscape:connector-curvature="0" fill="#FFFFFF" d="M1635.944,212.834h-13.848v27.48
			c0,6.984,2.46,10.476,7.332,10.476c2.256,0,4.128-0.192,5.604-0.588l0.324,9.54c-2.484,0.936-5.748,1.404-9.768,1.404
			c-4.969,0-8.832-1.512-11.628-4.536c-2.808-3.024-4.2-8.112-4.2-15.252v-28.524h-8.268v-9.42h8.268v-10.368l12.324-3.72v14.076
			h13.848v9.432H1635.944z"/>
		<path id="path3499" inkscape:connector-curvature="0" fill="#FFFFFF" d="M1702.521,259.982h-12.588v-32.16
			c0-10.14-3.792-15.216-11.388-15.216c-5.832,0-9.816,2.94-12,8.82c-0.372,1.236-0.588,2.748-0.588,4.524v34.02h-12.564v-82.512
			h12.564v34.092h0.24c3.96-6.204,9.636-9.3,16.992-9.3c5.208,0,9.516,1.704,12.936,5.124c4.26,4.26,6.396,10.596,6.396,18.972
			V259.982L1702.521,259.982z"/>
		<path id="path3501" inkscape:connector-curvature="0" fill="#FFFFFF" d="M1771.197,229.022c0,2.256-0.168,4.152-0.468,5.7h-37.716
			c0.168,5.592,1.968,9.852,5.46,12.804c3.192,2.64,7.308,3.96,12.348,3.96c5.58,0,10.668-0.888,15.252-2.676l1.968,8.736
			c-5.364,2.328-11.676,3.492-18.984,3.492c-8.76,0-15.66-2.58-20.652-7.74c-5.016-5.16-7.5-12.084-7.5-20.772
			c0-8.532,2.316-15.636,6.984-21.3c4.872-6.048,11.46-9.072,19.776-9.072c8.136,0,14.316,3.024,18.492,9.072
			C1769.528,216.026,1771.197,221.966,1771.197,229.022L1771.197,229.022z M1759.197,225.77c0.096-3.732-0.732-6.948-2.436-9.66
			c-2.184-3.492-5.508-5.244-10.008-5.244c-4.104,0-7.452,1.704-10.008,5.124c-2.088,2.724-3.324,5.976-3.732,9.78H1759.197z"/>
	</g>
</g>
</svg>
