<?xml version="1.0" standalone="no"?>
<!DOCTYPE svg PUBLIC "-//W3C//DTD SVG 20010904//EN"
 "http://www.w3.org/TR/2001/REC-SVG-20010904/DTD/svg10.dtd">
<svg version="1.0" xmlns="http://www.w3.org/2000/svg"
 width="1000.000000pt" height="328.000000pt" viewBox="0 0 1000.000000 328.000000"
 preserveAspectRatio="xMidYMid meet">

<g transform="translate(0.000000,328.000000) scale(0.100000,-0.100000)"
fill="#000000" stroke="none">
<path d="M343 3265 c-176 -48 -304 -188 -332 -365 -15 -88 -15 -2419 -1 -2510
29 -180 171 -331 348 -369 75 -16 9208 -16 9284 0 178 38 319 185 348 364 6
37 10 529 10 1265 0 1302 0 1281 -53 1387 -57 112 -180 206 -305 232 -38 8
-1319 11 -4650 10 -3923 0 -4605 -2 -4649 -14z m3484 -674 c53 -28 68 -116 32
-181 -30 -53 -65 -70 -143 -70 l-66 0 0 134 0 135 43 3 c51 4 104 -4 134 -21z
m264 15 c52 -11 58 -85 9 -119 -16 -11 -18 -16 -7 -20 12 -4 67 -106 67 -123
0 -3 -14 -4 -32 -2 -26 3 -33 9 -45 43 -14 43 -36 65 -65 65 -15 0 -18 -9 -18
-55 0 -54 0 -55 -30 -55 l-30 0 0 134 0 135 48 3 c50 3 61 2 103 -6z m300 -1
c98 -51 90 -208 -14 -259 -70 -34 -156 7 -177 84 -33 123 84 230 191 175z
m461 -34 c23 -26 28 -41 28 -84 0 -99 -53 -147 -162 -147 l-63 0 0 135 0 134
45 3 c77 5 122 -7 152 -41z m663 19 c9 -7 15 -29 15 -50 0 -48 -39 -84 -99
-94 l-41 -6 0 -50 c0 -48 -1 -50 -27 -50 l-28 0 0 135 0 134 50 3 c59 4 110
-5 130 -22z m250 0 c22 -18 19 -86 -4 -109 -18 -18 -79 -41 -108 -41 -9 0 -13
-17 -13 -50 0 -47 -2 -50 -25 -50 l-25 0 0 134 0 135 48 3 c56 4 107 -5 127
-22z m392 -14 c60 -65 42 -186 -33 -227 -36 -19 -104 -16 -137 6 -74 48 -77
167 -5 231 32 30 46 34 98 30 36 -3 51 -11 77 -40z m-4669 -345 c361 -208 761
-438 887 -511 127 -73 238 -140 249 -150 35 -34 13 -53 -217 -186 -122 -70
-226 -129 -231 -132 -4 -2 -75 62 -157 144 l-149 148 -532 -529 c-293 -292
-536 -534 -539 -539 -4 -5 -14 -6 -23 -3 -15 6 -16 93 -14 954 2 611 4 831 8
618 3 -181 7 -331 8 -333 1 -1 205 -2 454 -2 l452 1 85 -83 c47 -45 -153 157
-444 450 -332 333 -523 532 -512 532 10 0 314 -170 675 -379z m1774 244 l47
-135 -34 0 c-31 0 -35 3 -45 40 -11 40 -11 40 -59 40 -48 0 -49 -1 -58 -37 -8
-33 -13 -38 -41 -41 -18 -2 -32 -1 -32 2 0 3 19 56 43 118 24 62 46 121 50
131 5 12 17 17 44 17 l38 0 47 -135z m211 37 l58 -97 -3 98 -3 97 25 0 25 0 0
-135 0 -135 -25 0 c-20 1 -36 17 -82 89 -32 49 -58 94 -58 100 0 6 -3 11 -7
11 -5 0 -7 -45 -5 -100 l3 -100 -25 0 -26 0 0 135 0 135 33 0 c30 0 36 -7 90
-98z m1107 -37 l0 -135 -30 0 -30 0 0 135 0 135 30 0 30 0 0 -135z m663 0 l46
-135 -34 0 c-30 0 -34 3 -42 38 -8 36 -10 37 -60 40 l-52 3 -7 -36 c-7 -38
-20 -49 -52 -43 -19 3 -17 10 24 123 25 66 47 126 49 133 3 7 21 12 44 12 l39
0 45 -135z m1132 40 c32 -52 59 -95 59 -95 1 0 -1 43 -2 95 l-4 95 26 0 26 0
0 -135 c0 -134 0 -135 -23 -135 -23 0 -74 62 -134 164 l-24 41 4 -102 c4 -102
4 -103 -19 -103 -23 0 -23 2 -26 135 l-3 135 30 0 c28 0 36 -9 90 -95z m1
-430 l-26 -24 0 -424 c0 -316 3 -426 12 -435 7 -7 31 -12 55 -12 48 0 55 -11
18 -28 -28 -13 -245 -17 -245 -4 0 4 7 16 15 26 13 17 15 87 15 448 l0 428
-47 0 -48 1 45 24 c38 20 59 24 139 25 l94 0 -27 -25z m-2597 -36 c79 -21 172
-66 178 -85 5 -14 -113 -114 -133 -114 -12 0 -11 5 3 26 17 27 17 27 -21 60
-146 127 -379 121 -513 -12 -162 -163 -147 -471 33 -651 35 -35 80 -67 131
-91 76 -36 81 -37 193 -37 75 0 126 5 148 14 l32 13 0 110 0 109 -97 -6 -98
-6 50 30 c49 30 52 31 188 31 75 0 137 -4 137 -8 0 -5 -9 -17 -20 -27 -18 -16
-20 -31 -20 -136 l0 -117 -87 -21 c-206 -47 -367 -58 -473 -32 -224 55 -371
243 -370 476 1 85 13 141 46 210 69 148 214 253 387 285 74 13 218 3 306 -21z
m4491 -469 l0 -460 -45 0 -45 0 0 460 0 460 45 0 45 0 0 -460z m-1163 187 c3
-4 -1 -7 -10 -7 -13 0 -17 -10 -19 -42 l-1 -43 -4 43 c-3 29 -9 42 -19 42 -8
0 -13 4 -10 8 5 9 53 8 63 -1z m792 -16 c57 -30 108 -92 128 -158 26 -85 23
-240 -6 -315 -39 -102 -132 -168 -236 -168 -63 0 -138 26 -171 60 -16 16 -31
30 -34 30 -3 0 -4 -83 -2 -185 l4 -185 -51 0 -51 0 2 467 3 467 35 0 c33 0 36
-3 44 -40 13 -51 12 -51 37 -20 56 71 204 95 298 47z m907 -1 c52 -22 82 -64
94 -133 6 -29 9 -152 8 -273 l-3 -219 -37 -3 c-36 -3 -37 -3 -43 42 -4 25 -10
46 -14 46 -4 0 -22 -16 -41 -35 -75 -77 -245 -87 -322 -18 -51 45 -73 150 -44
216 33 79 111 114 281 129 l125 11 0 46 c0 51 -26 103 -61 122 -33 17 -115 15
-184 -7 -78 -24 -75 -24 -91 14 l-14 33 45 20 c91 40 220 44 301 9z m-4278 5
c68 -20 151 -97 183 -167 32 -72 33 -192 2 -260 -30 -66 -96 -133 -162 -165
-49 -24 -68 -28 -146 -28 -147 0 -238 52 -295 169 -72 146 -38 294 92 399 77
62 216 84 326 52z m768 -17 c60 -31 118 -93 147 -157 33 -71 30 -188 -6 -263
-61 -125 -193 -197 -340 -185 -123 11 -221 77 -271 186 -32 71 -30 199 6 266
26 51 94 121 139 146 54 29 106 39 189 36 68 -3 95 -9 136 -29z m1557 21 c47
-13 115 -73 134 -118 8 -18 12 -35 10 -37 -2 -2 -77 -34 -166 -70 -124 -50
-171 -64 -202 -62 -38 3 -34 6 96 62 130 56 135 59 135 88 0 21 -10 40 -33 63
-63 63 -151 55 -211 -18 -30 -38 -31 -42 -31 -135 0 -83 4 -105 27 -153 57
-125 150 -185 268 -177 36 3 81 13 100 23 l35 17 -30 -32 c-48 -51 -100 -73
-186 -78 -141 -8 -238 48 -301 176 -29 59 -33 76 -33 152 0 73 4 93 28 142 63
129 219 197 360 157z m304 -19 c3 -16 9 -30 13 -30 4 0 10 14 14 30 9 47 26
35 25 -17 -2 -46 -2 -46 -8 -13 l-7 35 -8 -32 c-4 -18 -11 -33 -16 -33 -5 0
-12 15 -16 33 l-8 32 -7 -35 c-6 -33 -6 -33 -8 13 -1 52 16 64 26 17z m1915 6
c16 -29 129 -326 164 -431 18 -55 35 -93 37 -85 18 60 182 517 188 524 9 11
99 14 99 3 0 -18 -283 -755 -307 -799 -51 -93 -137 -138 -237 -123 -46 7 -46
7 -46 47 l0 40 35 -6 c86 -16 153 33 194 142 l23 61 -126 316 c-69 173 -126
318 -126 323 0 4 21 6 46 6 32 -1 50 -7 56 -18z m-2942 6 c0 -15 -71 -42 -111
-42 l-41 0 36 -42 c86 -100 76 -206 -29 -311 -86 -86 -85 -98 4 -174 80 -69
110 -107 122 -163 22 -96 -46 -202 -163 -256 -58 -26 -72 -29 -183 -28 -100 0
-127 3 -166 21 -130 60 -164 180 -78 278 54 62 125 91 260 110 l46 6 -19 37
c-13 25 -17 48 -13 70 l6 32 -48 0 c-128 1 -226 113 -209 237 12 88 64 155
156 197 39 18 71 22 235 27 105 3 191 6 193 7 1 1 2 -2 2 -6z"/>
<path d="M3704 2533 c3 -21 6 -64 6 -95 0 -58 0 -58 30 -58 48 0 80 39 80 95
0 60 -32 95 -86 95 l-37 0 7 -37z"/>
<path d="M4003 2572 c-8 -5 -10 -21 -6 -45 5 -32 9 -37 32 -37 54 0 73 62 25
80 -30 12 -35 12 -51 2z"/>
<path d="M4273 2543 c-27 -40 -24 -105 6 -137 52 -55 121 -16 121 69 0 58 -30
95 -75 95 -26 0 -39 -6 -52 -27z"/>
<path d="M4710 2475 l0 -95 29 0 c17 0 42 10 58 24 23 20 28 32 28 69 0 58
-33 97 -82 97 l-33 0 0 -95z"/>
<path d="M5397 2574 c-4 -4 -7 -27 -7 -51 0 -38 3 -43 23 -43 50 0 86 52 54
78 -17 15 -61 25 -70 16z"/>
<path d="M5647 2573 c-4 -3 -7 -26 -7 -50 0 -38 3 -43 23 -43 31 0 67 27 67
50 0 32 -63 64 -83 43z"/>
<path d="M6012 2547 c-32 -34 -31 -109 3 -142 64 -64 146 15 115 110 -19 58
-79 74 -118 32z"/>
<path d="M3166 2560 c-3 -8 -12 -34 -20 -57 l-15 -43 39 0 39 0 -14 43 c-7 23
-15 49 -18 57 -4 13 -5 13 -11 0z"/>
<path d="M5137 2525 c-22 -65 -22 -65 19 -65 39 0 38 -5 9 80 l-12 34 -16 -49z"/>
<path d="M7659 1667 c-53 -35 -73 -86 -77 -198 -7 -157 29 -238 117 -268 121
-40 218 32 242 180 19 120 -15 240 -80 285 -50 34 -152 35 -202 1z"/>
<path d="M8648 1429 c-108 -16 -153 -54 -153 -130 0 -66 32 -100 104 -107 127
-12 211 70 211 206 l0 42 -52 -1 c-29 -1 -79 -5 -110 -10z"/>
<path d="M4304 1712 c-92 -44 -124 -151 -89 -300 27 -115 84 -199 152 -228 77
-33 166 -1 211 74 24 42 27 57 26 132 -1 135 -47 250 -120 306 -47 36 -122 43
-180 16z"/>
<path d="M5034 1711 c-78 -36 -110 -107 -101 -226 17 -220 152 -359 290 -301
86 35 128 138 108 266 -35 222 -153 326 -297 261z"/>
<path d="M5730 1697 c-40 -20 -70 -74 -70 -127 0 -78 27 -150 75 -197 36 -37
48 -43 84 -43 94 0 137 53 128 158 -12 154 -120 258 -217 209z"/>
<path d="M5747 1099 c-124 -29 -182 -110 -144 -201 29 -69 114 -111 227 -111
106 0 170 39 190 114 17 61 -14 114 -104 180 -42 31 -91 36 -169 18z"/>
</g>
</svg>
